<svg xmlns="http://www.w3.org/2000/svg" viewBox="0 0 512 512" width="512" height="512">
  <defs>
    <linearGradient id="bgGrad" x1="0%" y1="0%" x2="0%" y2="100%">
      <stop offset="0%" style="stop-color:#1a5570"/>
      <stop offset="100%" style="stop-color:#0c3347"/>
    </linearGradient>
    <clipPath id="rounded">
      <rect x="0" y="0" width="512" height="512" rx="88" ry="88"/>
    </clipPath>
  </defs>

  <!-- Background — brand navy -->
  <rect x="0" y="0" width="512" height="512" rx="88" ry="88" fill="url(#bgGrad)"/>
  <rect x="0" y="0" width="512" height="512" rx="88" ry="88"
        fill="none" stroke="rgba(255,255,255,0.07)" stroke-width="2"/>

  <!--
    Signal arcs + dot, adapted from actual RESCUE logo SVG.
    Original canvas: 1920x1080, signal center: (960, 496)
    Transform to place center at (256, 215) in 512x512: scale 0.87
    tx = 256 - 0.87*960 = 256 - 835.2 = -579.2
    ty = 215 - 0.87*496 = 215 - 431.5 = -216.5
  -->
  <g transform="matrix(0.87 0 0 0.87 -579.2 -216.5)">
    <!-- Outer arc chevron -->
    <path fill="#e07026"
      d="M960.01,326.18c53.48,0,101.75,22.64,135.82,58.8l26.69-26.69
         c-40.92-42.99-98.62-69.87-162.51-69.87s-121.6,26.88-162.51,69.87
         l26.69,26.69c34.07-36.16,82.34-58.8,135.82-58.8Z"/>
    <!-- Inner arc chevron -->
    <path fill="#e07026"
      d="M960.01,411.98c29.83,0,56.66,13.02,75.15,33.66l26.72-26.72
         c-25.35-27.47-61.63-44.71-101.87-44.71s-76.51,17.24-101.87,44.71
         l26.72,26.72c18.49-20.64,45.32-33.66,75.15-33.66Z"/>
    <!-- Signal dot -->
    <circle fill="#e07026" cx="960.01" cy="496.4" r="30.98"/>
  </g>

  <!--
    RESCUE circles row — adapted from actual logo.
    Original: 6 circles at y=621, r=81.67, first at x=551.68, spaced 163.33
    Scale 0.475, translate to center row at y≈385 in 512x512
    tx = 256 - 0.475 * ((551.68+1368.33)/2) = 256 - 0.475*960 = 256 - 456 = -200
    ty = 390 - 0.475*621 = 390 - 295 = 95
  -->
  <g transform="matrix(0.475 0 0 0.475 -200 95)">
    <!-- 6 letter circles -->
    <circle fill="none" stroke="#e07026" stroke-width="22.95" cx="551.68" cy="621.59" r="81.67"/>
    <circle fill="none" stroke="#e07026" stroke-width="22.95" cx="715.01" cy="621.59" r="81.67"/>
    <circle fill="none" stroke="#e07026" stroke-width="22.95" cx="878.34" cy="621.59" r="81.67"/>
    <circle fill="none" stroke="#e07026" stroke-width="22.95" cx="1041.67" cy="621.59" r="81.67"/>
    <circle fill="none" stroke="#e07026" stroke-width="22.95" cx="1205"    cy="621.59" r="81.67"/>
    <circle fill="none" stroke="#e07026" stroke-width="22.95" cx="1368.33" cy="621.59" r="81.67"/>

    <!-- R letter -->
    <path fill="#ffffff"
      d="M518,659.29v-10.49l7.73-1.64v-50.19l-7.73-1.64v-10.59h36.63c5.9,0,11.01.94,15.35,2.81
         c4.33,1.87,7.67,4.54,10.03,8c2.35,3.46,3.53,7.56,3.53,12.3c0,4.37-1.19,8.43-3.56,12.18
         c-2.37,3.75-5.62,6.76-9.75,9.03c-4.13,2.27-8.83,3.38-14.12,3.35l-12.43-.15v14.89
         l7.72,1.64v10.49h-33.4ZM543.68,618.51h11.15c3.48,0,6.16-.81,8.03-2.43
         c1.87-1.62,2.81-3.96,2.81-7.03s-.96-5.72-2.86-7.65c-1.91-1.92-4.64-2.89-8.18-2.89h-10.95v20Z
         M565.16,659.29l-10.03-29.06l15.6-5.32l9.06,22.15l7.06,1.79v10.44h-21.69Z"/>
    <!-- E -->
    <path fill="#ffffff"
      d="M683.57,659.29v-10.49l7.73-1.64v-50.19l-7.73-1.64v-10.54h59.49v21.49h-13.56l-.41-7.67
         h-19.85v15.3h23.79v13.76h-23.79v17.75h20.82l.41-8.03h13.4v21.89h-60.31Z"/>
    <!-- S -->
    <path fill="#ffffff"
      d="M880.13,660.36c-6.07,0-11.46-.58-16.17-1.74c-4.71-1.16-9.4-3.34-14.07-6.55v-19.34
         h13.86l1.53,9.92c1.09,1.23,3.02,2.26,5.78,3.1c2.76.84,5.78,1.25,9.05,1.25
         c2.29,0,4.19-.28,5.73-.84c1.53-.56,2.69-1.39,3.48-2.48c.78-1.09,1.18-2.4,1.18-3.94
         s-.37-2.78-1.1-3.94c-.73-1.16-1.94-2.26-3.61-3.3c-1.67-1.04-3.92-2.1-6.75-3.2
         c-6.38-2.05-11.61-4.13-15.71-6.24c-4.09-2.11-7.13-4.62-9.13-7.52
         c-1.99-2.9-2.99-6.5-2.99-10.79s1.18-7.73,3.53-10.82c2.35-3.09,5.59-5.52,9.72-7.29
         c4.13-1.77,8.85-2.71,14.17-2.81c6.07-.14,11.44.47,16.12,1.82c4.67,1.34,8.8,3.38,12.38,6.11
         v17.95h-13.3l-2.1-9.97c-1.16-.58-2.81-1.11-4.96-1.59s-4.43-.71-6.85-.71
         c-2.08,0-3.93.27-5.55.82c-1.62.55-2.9,1.37-3.84,2.46c-.94,1.09-1.41,2.46-1.41,4.09
         c0,1.33.39,2.52,1.18,3.56s2.16,2.08,4.14,3.12c1.98,1.04,4.74,2.24,8.29,3.61
         c8.46,2.49,14.88,5.6,19.26,9.34c4.38,3.73,6.57,8.81,6.57,15.22
         c0,4.4-1.19,8.14-3.58,11.23c-2.39,3.09-5.71,5.44-9.97,7.06
         c-4.26,1.62-9.23,2.43-14.89,2.43Z"/>
    <!-- C -->
    <path fill="#ffffff"
      d="M1042.01,660.36c-7.09,0-13.42-1.43-18.98-4.3c-5.56-2.86-9.92-7.02-13.1-12.46
         c-3.17-5.44-4.76-12.05-4.76-19.82v-3.43c0-7.16,1.46-13.5,4.37-19
         c2.92-5.51,7.08-9.82,12.48-12.94s11.82-4.68,19.26-4.68c5.19,0,10.12.69,14.81,2.07
         c4.69,1.38,9.04,3.74,13.07,7.09v19.18h-13.04l-1.79-11c-1.16-.78-2.38-1.47-3.66-2.05
         c-1.28-.58-2.64-1.02-4.09-1.33c-1.45-.31-3.01-.46-4.68-.46c-3.78,0-7.09.91-9.92,2.71
         c-2.83,1.81-5.02,4.43-6.57,7.85c-1.55,3.43-2.33,7.58-2.33,12.46v3.53
         c0,4.57.8,8.59,2.4,12.05c1.6,3.46,3.85,6.16,6.73,8.11c2.88,1.94,6.22,2.92,10,2.92
         c2.01,0,4.06-.21,6.14-.64c2.08-.43,4.09-1,6.04-1.71l1.79-10.54h13.1v18.77
         c-2.97,2.05-6.75,3.83-11.36,5.35c-4.6,1.51-9.91,2.28-15.91,2.28Z"/>
    <!-- U -->
    <path fill="#ffffff"
      d="M1205.13,660.36c-6.41,0-12-1.03-16.75-3.1c-4.76-2.06-8.43-5.09-11.02-9.08
         c-2.59-3.99-3.89-8.87-3.89-14.63v-36.58l-7.67-1.64v-10.54h33.35v10.54l-7.72,1.64
         v36.58c0,3,.53,5.48,1.59,7.44c1.06,1.96,2.6,3.42,4.63,4.37c2.03.95,4.49,1.43,7.39,1.43
         s5.51-.48,7.54-1.43c2.03-.95,3.56-2.41,4.6-4.37c1.04-1.96,1.56-4.44,1.56-7.44v-36.58
         l-7.67-1.64v-10.54h33.35v10.54l-7.72,1.64v36.58c0,5.66-1.33,10.5-3.99,14.5
         c-2.66,4.01-6.35,7.06-11.07,9.16c-4.72,2.1-10.22,3.15-16.5,3.15Z"/>
    <!-- E -->
    <path fill="#ffffff"
      d="M1340.21,659.29v-10.49l7.72-1.64v-50.19l-7.72-1.64v-10.54h59.5v21.49h-13.56
         l-.41-7.67h-19.85v15.3h23.79v13.76h-23.79v17.75h20.82l.41-8.03h13.4v21.89h-60.31Z"/>
  </g>

</svg>
